<svg xmlns="http://www.w3.org/2000/svg" viewBox="0 15.5 322.45001220703125 37.45000076293945" data-asc="1.05" width="322.45001220703125" height="37.45000076293945"><defs/><g fill="#000000"><g transform="translate(0, 0)"><path d="M10.90 45.90L0 34.70L10.90 23.50L19.70 23.50L8.80 34.70L19.70 45.90L10.90 45.90ZM62.00 45.85L48.10 45.85L45.80 52.50L38.45 52.50L51.00 17.55L59.15 17.55L71.70 52.50L64.30 52.50L62.00 45.85M60.10 40.25L55.05 25.65L50.00 40.25L60.10 40.25ZM83.40 28.85Q84.75 26.85 87.13 25.60Q89.50 24.35 92.55 24.35Q96.10 24.35 98.98 26.10Q101.85 27.85 103.53 31.07Q105.20 34.30 105.20 38.55Q105.20 42.80 103.53 46.08Q101.85 49.35 98.98 51.15Q96.10 52.95 92.55 52.95Q89.45 52.95 87.13 51.73Q84.80 50.50 83.40 48.55L83.40 52.50L76.40 52.50L76.40 15.50L83.40 15.50L83.40 28.85M98.05 38.55Q98.05 36.05 97.03 34.22Q96.00 32.40 94.33 31.45Q92.65 30.50 90.70 30.50Q88.80 30.50 87.13 31.47Q85.45 32.45 84.43 34.30Q83.40 36.15 83.40 38.65Q83.40 41.15 84.43 43Q85.45 44.85 87.13 45.83Q88.80 46.80 90.70 46.80Q92.65 46.80 94.33 45.80Q96.00 44.80 97.03 42.95Q98.05 41.10 98.05 38.55ZM122.60 52.95Q118.60 52.95 115.40 51.17Q112.20 49.40 110.38 46.15Q108.55 42.90 108.55 38.65Q108.55 34.40 110.43 31.15Q112.30 27.90 115.55 26.13Q118.80 24.35 122.80 24.35Q126.80 24.35 130.05 26.13Q133.30 27.90 135.18 31.15Q137.05 34.40 137.05 38.65Q137.05 42.90 135.13 46.15Q133.20 49.40 129.93 51.17Q126.65 52.95 122.60 52.95M122.60 46.85Q124.50 46.85 126.18 45.92Q127.85 45 128.85 43.15Q129.85 41.30 129.85 38.65Q129.85 34.70 127.78 32.58Q125.70 30.45 122.70 30.45Q119.70 30.45 117.68 32.58Q115.65 34.70 115.65 38.65Q115.65 42.60 117.63 44.73Q119.60 46.85 122.60 46.85ZM168.35 24.80L168.35 52.50L161.30 52.50L161.30 49Q159.95 50.80 157.78 51.83Q155.60 52.85 153.05 52.85Q149.80 52.85 147.30 51.48Q144.80 50.10 143.38 47.42Q141.95 44.75 141.95 41.05L141.95 24.80L148.95 24.80L148.95 40.05Q148.95 43.35 150.60 45.13Q152.25 46.90 155.10 46.90Q158.00 46.90 159.65 45.13Q161.30 43.35 161.30 40.05L161.30 24.80L168.35 24.80ZM183.40 30.55L183.40 43.95Q183.40 45.35 184.08 45.98Q184.75 46.60 186.35 46.60L189.60 46.60L189.60 52.50L185.20 52.50Q176.35 52.50 176.35 43.90L176.35 30.55L173.05 30.55L173.05 24.80L176.35 24.80L176.35 17.95L183.40 17.95L183.40 24.80L189.60 24.80L189.60 30.55L183.40 30.55ZM240.95 24.40Q246.05 24.40 249.18 27.52Q252.30 30.65 252.30 36.25L252.30 52.50L245.30 52.50L245.30 37.20Q245.30 33.95 243.65 32.22Q242.00 30.50 239.15 30.50Q236.30 30.50 234.63 32.22Q232.95 33.95 232.95 37.20L232.95 52.50L225.95 52.50L225.95 37.20Q225.95 33.95 224.30 32.22Q222.65 30.50 219.80 30.50Q216.90 30.50 215.23 32.22Q213.55 33.95 213.55 37.20L213.55 52.50L206.55 52.50L206.55 24.80L213.55 24.80L213.55 28.15Q214.90 26.40 217.03 25.40Q219.15 24.40 221.70 24.40Q224.95 24.40 227.50 25.77Q230.05 27.15 231.45 29.70Q232.80 27.30 235.38 25.85Q237.95 24.40 240.95 24.40ZM284.70 38.05Q284.70 39.55 284.50 40.75L264.25 40.75Q264.50 43.75 266.35 45.45Q268.20 47.15 270.90 47.15Q274.80 47.15 276.45 43.80L284.00 43.80Q282.80 47.80 279.40 50.38Q276.00 52.95 271.05 52.95Q267.05 52.95 263.88 51.17Q260.70 49.40 258.93 46.15Q257.15 42.90 257.15 38.65Q257.15 34.35 258.90 31.10Q260.65 27.85 263.80 26.10Q266.95 24.35 271.05 24.35Q275.00 24.35 278.13 26.05Q281.25 27.75 282.98 30.88Q284.70 34 284.70 38.05M277.45 36.05Q277.40 33.35 275.50 31.72Q273.60 30.10 270.85 30.10Q268.25 30.10 266.48 31.67Q264.70 33.25 264.30 36.05L277.45 36.05ZM302.70 23.50L311.55 23.50L322.45 34.70L311.55 45.90L302.70 45.90L313.65 34.70L302.70 23.50Z"/></g></g></svg>