<svg xmlns="http://www.w3.org/2000/svg" viewBox="0 5.800000190734863 297.1499938964844 56" data-asc="1.05" width="297.1499938964844" height="56"><defs/><g fill="#000000"><g transform="translate(0, 0)"><path d="M18.60 34.65Q21.40 35.15 23.35 37.60Q25.30 40.05 25.30 43.15Q25.30 45.80 23.93 47.92Q22.55 50.05 19.95 51.27Q17.35 52.50 13.90 52.50L0 52.50L0 17.75L13.25 17.75Q16.80 17.75 19.35 18.95Q21.90 20.15 23.20 22.17Q24.50 24.20 24.50 26.70Q24.50 29.70 22.90 31.70Q21.30 33.70 18.60 34.65M5.70 32.35L12.75 32.35Q15.55 32.35 17.13 31.07Q18.70 29.80 18.70 27.40Q18.70 25.05 17.13 23.72Q15.55 22.40 12.75 22.40L5.70 22.40L5.70 32.35M13.40 47.85Q16.30 47.85 17.95 46.45Q19.60 45.05 19.60 42.55Q19.60 40 17.85 38.50Q16.10 37 13.20 37L5.70 37L5.70 47.85L13.40 47.85ZM29.60 38.60Q29.60 34.45 31.32 31.25Q33.05 28.05 36.02 26.27Q39 24.50 42.60 24.50Q45.85 24.50 48.28 25.77Q50.70 27.05 52.15 28.95L52.15 24.95L57.90 24.95L57.90 52.50L52.15 52.50L52.15 48.40Q50.70 50.35 48.20 51.65Q45.70 52.95 42.50 52.95Q38.95 52.95 36 51.13Q33.05 49.30 31.32 46.02Q29.60 42.75 29.60 38.60M52.15 38.70Q52.15 35.85 50.98 33.75Q49.80 31.65 47.90 30.55Q46 29.45 43.80 29.45Q41.60 29.45 39.70 30.52Q37.80 31.60 36.63 33.67Q35.45 35.75 35.45 38.60Q35.45 41.45 36.63 43.60Q37.80 45.75 39.73 46.88Q41.65 48 43.80 48Q46 48 47.90 46.90Q49.80 45.80 50.98 43.67Q52.15 41.55 52.15 38.70ZM63.50 38.70Q63.50 34.45 65.22 31.22Q66.95 28 70 26.25Q73.05 24.50 77 24.50Q82 24.50 85.28 26.88Q88.55 29.25 89.70 33.65L83.55 33.65Q82.80 31.60 81.15 30.45Q79.50 29.30 77 29.30Q73.50 29.30 71.42 31.77Q69.35 34.25 69.35 38.70Q69.35 43.15 71.42 45.65Q73.50 48.15 77 48.15Q81.95 48.15 83.55 43.80L89.70 43.80Q88.50 48 85.20 50.48Q81.90 52.95 77 52.95Q73.05 52.95 70 51.17Q66.95 49.40 65.22 46.17Q63.50 42.95 63.50 38.70ZM106.30 38.75L119 52.50L111.30 52.50L101.10 40.65L101.10 52.50L95.40 52.50L95.40 15.50L101.10 15.50L101.10 37L111.10 24.95L119 24.95L106.30 38.75ZM144.25 32L144.25 36.80L123.70 36.80L123.70 32L144.25 32ZM158.05 22.35L158.05 32.55L170.05 32.55L170.05 37.20L158.05 37.20L158.05 47.85L171.55 47.85L171.55 52.50L152.35 52.50L152.35 17.70L171.55 17.70L171.55 22.35L158.05 22.35ZM192.45 24.50Q195.70 24.50 198.28 25.85Q200.85 27.20 202.30 29.85Q203.75 32.50 203.75 36.25L203.75 52.50L198.10 52.50L198.10 37.10Q198.10 33.40 196.25 31.42Q194.40 29.45 191.20 29.45Q188 29.45 186.13 31.42Q184.25 33.40 184.25 37.10L184.25 52.50L178.55 52.50L178.55 24.95L184.25 24.95L184.25 28.10Q185.65 26.40 187.83 25.45Q190 24.50 192.45 24.50ZM209.10 38.60Q209.10 34.45 210.82 31.25Q212.55 28.05 215.53 26.27Q218.50 24.50 222.15 24.50Q224.85 24.50 227.47 25.67Q230.10 26.85 231.65 28.80L231.65 15.50L237.40 15.50L237.40 52.50L231.65 52.50L231.65 48.35Q230.25 50.35 227.78 51.65Q225.30 52.95 222.10 52.95Q218.50 52.95 215.53 51.13Q212.55 49.30 210.82 46.02Q209.10 42.75 209.10 38.60M231.65 38.70Q231.65 35.85 230.47 33.75Q229.30 31.65 227.40 30.55Q225.50 29.45 223.30 29.45Q221.10 29.45 219.20 30.52Q217.30 31.60 216.13 33.67Q214.95 35.75 214.95 38.60Q214.95 41.45 216.13 43.60Q217.30 45.75 219.22 46.88Q221.15 48 223.30 48Q225.50 48 227.40 46.90Q229.30 45.80 230.47 43.67Q231.65 41.55 231.65 38.70ZM270.50 61.80Q265.60 57.10 262.98 49.85Q260.35 42.60 260.35 34.30Q260.35 25.80 263.18 18.25Q266 10.70 271.50 5.80L277.40 5.80L277.40 6.35Q271.65 11.65 268.75 19.05Q265.85 26.45 265.85 34.30Q265.85 41.85 268.55 48.90Q271.25 55.95 276.40 61.25L276.40 61.80L270.50 61.80ZM281.10 61.80L281.10 61.25Q286.25 55.95 288.95 48.90Q291.65 41.85 291.65 34.30Q291.65 26.45 288.75 19.05Q285.85 11.65 280.10 6.35L280.10 5.80L286 5.80Q291.50 10.70 294.32 18.25Q297.15 25.80 297.15 34.30Q297.15 42.60 294.52 49.85Q291.90 57.10 287 61.80L281.10 61.80Z"/></g></g></svg>