<svg xmlns="http://www.w3.org/2000/svg" viewBox="0 14 271.20001220703125 38.95000076293945" data-asc="1.05" width="271.20001220703125" height="38.95000076293945"><defs/><g fill="#000000"><g transform="translate(0, 0)"><path d="M20.45 17.75L20.45 22.40L5.70 22.40L5.70 32.65L17.20 32.65L17.20 37.30L5.70 37.30L5.70 52.50L0 52.50L0 17.75L20.45 17.75ZM28.65 21.30Q27.10 21.30 26.05 20.25Q25 19.20 25 17.65Q25 16.10 26.05 15.05Q27.10 14 28.65 14Q30.15 14 31.20 15.05Q32.25 16.10 32.25 17.65Q32.25 19.20 31.20 20.25Q30.15 21.30 28.65 21.30M31.45 24.95L31.45 52.50L25.75 52.50L25.75 24.95L31.45 24.95ZM52.85 24.50Q56.10 24.50 58.68 25.85Q61.25 27.20 62.70 29.85Q64.15 32.50 64.15 36.25L64.15 52.50L58.50 52.50L58.50 37.10Q58.50 33.40 56.65 31.42Q54.80 29.45 51.60 29.45Q48.40 29.45 46.53 31.42Q44.65 33.40 44.65 37.10L44.65 52.50L38.95 52.50L38.95 24.95L44.65 24.95L44.65 28.10Q46.05 26.40 48.23 25.45Q50.40 24.50 52.85 24.50ZM69.50 38.60Q69.50 34.45 71.23 31.25Q72.95 28.05 75.93 26.27Q78.90 24.50 82.55 24.50Q85.25 24.50 87.88 25.67Q90.50 26.85 92.05 28.80L92.05 15.50L97.80 15.50L97.80 52.50L92.05 52.50L92.05 48.35Q90.65 50.35 88.18 51.65Q85.70 52.95 82.50 52.95Q78.90 52.95 75.93 51.13Q72.95 49.30 71.23 46.02Q69.50 42.75 69.50 38.60M92.05 38.70Q92.05 35.85 90.88 33.75Q89.70 31.65 87.80 30.55Q85.90 29.45 83.70 29.45Q81.50 29.45 79.60 30.52Q77.70 31.60 76.53 33.67Q75.35 35.75 75.35 38.60Q75.35 41.45 76.53 43.60Q77.70 45.75 79.63 46.88Q81.55 48 83.70 48Q85.90 48 87.80 46.90Q89.70 45.80 90.88 43.67Q92.05 41.55 92.05 38.70ZM151.65 24.50Q154.90 24.50 157.48 25.85Q160.05 27.20 161.53 29.85Q163 32.50 163 36.25L163 52.50L157.35 52.50L157.35 37.10Q157.35 33.40 155.50 31.42Q153.65 29.45 150.45 29.45Q147.25 29.45 145.38 31.42Q143.50 33.40 143.50 37.10L143.50 52.50L137.85 52.50L137.85 37.10Q137.85 33.40 136 31.42Q134.15 29.45 130.95 29.45Q127.75 29.45 125.88 31.42Q124.00 33.40 124.00 37.10L124.00 52.50L118.30 52.50L118.30 24.95L124.00 24.95L124.00 28.10Q125.40 26.40 127.55 25.45Q129.70 24.50 132.15 24.50Q135.45 24.50 138.05 25.90Q140.65 27.30 142.05 29.95Q143.30 27.45 145.95 25.97Q148.60 24.50 151.65 24.50ZM195.50 38.05Q195.50 39.60 195.30 40.85L174.25 40.85Q174.50 44.15 176.70 46.15Q178.90 48.15 182.10 48.15Q186.70 48.15 188.60 44.30L194.75 44.30Q193.50 48.10 190.22 50.52Q186.95 52.95 182.10 52.95Q178.15 52.95 175.03 51.17Q171.90 49.40 170.13 46.17Q168.35 42.95 168.35 38.70Q168.35 34.45 170.07 31.22Q171.80 28 174.93 26.25Q178.05 24.50 182.10 24.50Q186 24.50 189.05 26.20Q192.10 27.90 193.80 30.97Q195.50 34.05 195.50 38.05M189.55 36.25Q189.50 33.10 187.30 31.20Q185.10 29.30 181.85 29.30Q178.90 29.30 176.80 31.17Q174.70 33.05 174.30 36.25L189.55 36.25ZM226.05 52.95Q222.15 52.95 219 51.17Q215.85 49.40 214.05 46.17Q212.25 42.95 212.25 38.70Q212.25 34.50 214.10 31.25Q215.95 28 219.15 26.25Q222.35 24.50 226.30 24.50Q230.25 24.50 233.45 26.25Q236.65 28 238.50 31.25Q240.35 34.50 240.35 38.70Q240.35 42.90 238.45 46.15Q236.55 49.40 233.28 51.17Q230 52.95 226.05 52.95M226.05 48Q228.25 48 230.18 46.95Q232.10 45.90 233.30 43.80Q234.50 41.70 234.50 38.70Q234.50 35.70 233.35 33.63Q232.20 31.55 230.30 30.50Q228.40 29.45 226.20 29.45Q224 29.45 222.13 30.50Q220.25 31.55 219.15 33.63Q218.05 35.70 218.05 38.70Q218.05 43.15 220.32 45.58Q222.60 48 226.05 48ZM259.90 24.50Q263.15 24.50 265.73 25.85Q268.30 27.20 269.75 29.85Q271.20 32.50 271.20 36.25L271.20 52.50L265.55 52.50L265.55 37.10Q265.55 33.40 263.70 31.42Q261.85 29.45 258.65 29.45Q255.45 29.45 253.57 31.42Q251.70 33.40 251.70 37.10L251.70 52.50L246 52.50L246 24.95L251.70 24.95L251.70 28.10Q253.10 26.40 255.28 25.45Q257.45 24.50 259.90 24.50Z"/></g></g></svg>