<svg xmlns="http://www.w3.org/2000/svg" viewBox="0 19.149999618530273 210.85000610351562 41" data-asc="1.193" width="210.85000610351562" height="41"><defs/><g fill="#000000"><g transform="translate(0, 0)"><path d="M0 59.65L0 19.15L17.10 19.15L17.10 24.75L8.25 24.75L8.25 35.70L15.75 35.70L15.75 41.45L8.25 41.45L8.25 59.65L0 59.65ZM20.90 59.65L20.90 30.75L28.45 30.75L28.45 59.65L20.90 59.65M20.85 26.00L20.85 20.35L28.45 20.35L28.45 26.00L20.85 26.00ZM33.65 59.65L33.65 30.75L41.20 30.75L41.20 33.65Q42.75 32.10 44.48 31.18Q46.20 30.25 48.15 30.25Q49.95 30.25 51.08 31.15Q52.20 32.05 52.75 33.53Q53.30 35 53.30 36.85L53.30 59.65L45.80 59.65L45.80 38.10Q45.80 36.90 45.42 36.30Q45.05 35.70 44 35.70Q43.40 35.70 42.67 36.03Q41.95 36.35 41.20 36.90L41.20 59.65L33.65 59.65ZM64.65 60.15Q61.35 60.15 59.58 57.80Q57.80 55.45 57.80 50.60L57.80 40Q57.80 37.20 58.53 35Q59.25 32.80 60.75 31.53Q62.25 30.25 64.60 30.25Q66.15 30.25 67.55 30.90Q68.95 31.55 70.10 32.55L70.10 19.15L77.65 19.15L77.65 59.65L70.10 59.65L70.10 57.50Q68.85 58.70 67.48 59.43Q66.10 60.15 64.65 60.15M67.70 55.15Q68.20 55.15 68.83 54.93Q69.45 54.70 70.10 54.30L70.10 35.90Q69.55 35.60 68.95 35.38Q68.35 35.15 67.75 35.15Q66.45 35.15 65.93 36.25Q65.40 37.35 65.40 38.90L65.40 51.10Q65.40 52.25 65.60 53.18Q65.80 54.10 66.30 54.63Q66.80 55.15 67.70 55.15ZM95.30 59.65L95.30 30.75L102.65 30.75L102.65 33.15Q104.20 31.55 105.93 30.88Q107.65 30.20 109.45 30.20Q111.20 30.20 112.48 31.08Q113.75 31.95 114.35 33.70Q116.05 31.80 117.90 31.00Q119.75 30.20 121.70 30.20Q123.30 30.20 124.55 31.00Q125.80 31.80 126.50 33.35Q127.20 34.90 127.20 37.15L127.20 59.65L119.85 59.65L119.85 37.90Q119.85 36.50 119.38 35.93Q118.90 35.35 117.95 35.35Q117.35 35.35 116.50 35.70Q115.65 36.05 114.90 36.70Q114.90 36.80 114.90 36.90Q114.90 37 114.90 37.15L114.90 59.65L107.65 59.65L107.65 37.90Q107.65 36.50 107.15 35.93Q106.65 35.35 105.70 35.35Q105.05 35.35 104.23 35.70Q103.40 36.05 102.65 36.70L102.65 59.65L95.30 59.65ZM141.25 60.15Q138.05 60.15 135.90 58.98Q133.75 57.80 132.65 55.53Q131.55 53.25 131.55 50.05L131.55 40.35Q131.55 37.05 132.65 34.83Q133.75 32.60 135.95 31.43Q138.15 30.25 141.25 30.25Q144.55 30.25 146.60 31.45Q148.65 32.65 149.63 34.95Q150.60 37.25 150.60 40.55L150.60 45.60L139 45.60L139 51.20Q139 52.45 139.28 53.25Q139.55 54.05 140.05 54.38Q140.55 54.70 141.30 54.70Q142 54.70 142.53 54.38Q143.05 54.05 143.30 53.35Q143.55 52.65 143.55 51.50L143.55 48.75L150.55 48.75L150.55 51.15Q150.55 55.55 148.15 57.85Q145.75 60.15 141.25 60.15M139 42L143.55 42L143.55 39.15Q143.55 37.90 143.30 37.13Q143.05 36.35 142.53 36.03Q142 35.70 141.20 35.70Q140.45 35.70 139.98 36.05Q139.50 36.40 139.25 37.28Q139 38.15 139 39.75L139 42ZM176.80 60.15Q173.70 60.15 171.50 59.03Q169.30 57.90 168.18 55.75Q167.05 53.60 167.05 50.40L167.05 40Q167.05 36.80 168.18 34.65Q169.30 32.50 171.50 31.38Q173.70 30.25 176.80 30.25Q179.90 30.25 182.10 31.38Q184.30 32.50 185.45 34.65Q186.60 36.80 186.60 40L186.60 50.40Q186.60 53.60 185.45 55.75Q184.30 57.90 182.10 59.03Q179.90 60.15 176.80 60.15M176.85 55.05Q177.80 55.05 178.30 54.53Q178.80 54.00 178.95 53.08Q179.10 52.15 179.10 50.95L179.10 39.50Q179.10 38.25 178.95 37.35Q178.80 36.45 178.30 35.90Q177.80 35.35 176.85 35.35Q175.90 35.35 175.40 35.90Q174.90 36.45 174.73 37.35Q174.55 38.25 174.55 39.50L174.55 50.95Q174.55 52.15 174.73 53.08Q174.90 54.00 175.40 54.53Q175.90 55.05 176.85 55.05ZM191.20 59.65L191.20 30.75L198.75 30.75L198.75 33.65Q200.30 32.10 202.03 31.18Q203.75 30.25 205.70 30.25Q207.50 30.25 208.63 31.15Q209.75 32.05 210.30 33.53Q210.85 35 210.85 36.85L210.85 59.65L203.35 59.65L203.35 38.10Q203.35 36.90 202.98 36.30Q202.60 35.70 201.55 35.70Q200.95 35.70 200.23 36.03Q199.50 36.35 198.75 36.90L198.75 59.65L191.20 59.65Z"/></g></g></svg>