<svg xmlns="http://www.w3.org/2000/svg" viewBox="0 5.800000190734863 301.95001220703125 56" data-asc="1.05" width="301.95001220703125" height="56"><defs/><g fill="#000000"><g transform="translate(0, 0)"><path d="M20.45 17.75L20.45 22.40L5.70 22.40L5.70 32.65L17.20 32.65L17.20 37.30L5.70 37.30L5.70 52.50L0 52.50L0 17.75L20.45 17.75ZM31.45 28.95Q32.70 26.85 34.77 25.67Q36.85 24.50 39.70 24.50L39.70 30.40L38.25 30.40Q34.90 30.40 33.17 32.10Q31.45 33.80 31.45 38L31.45 52.50L25.75 52.50L25.75 24.95L31.45 24.95L31.45 28.95ZM56.90 52.95Q53 52.95 49.85 51.17Q46.70 49.40 44.90 46.17Q43.10 42.95 43.10 38.70Q43.10 34.50 44.95 31.25Q46.80 28 50 26.25Q53.20 24.50 57.15 24.50Q61.10 24.50 64.30 26.25Q67.50 28 69.35 31.25Q71.20 34.50 71.20 38.70Q71.20 42.90 69.30 46.15Q67.40 49.40 64.13 51.17Q60.85 52.95 56.90 52.95M56.90 48Q59.10 48 61.03 46.95Q62.95 45.90 64.15 43.80Q65.35 41.70 65.35 38.70Q65.35 35.70 64.20 33.63Q63.05 31.55 61.15 30.50Q59.25 29.45 57.05 29.45Q54.85 29.45 52.98 30.50Q51.10 31.55 50 33.63Q48.90 35.70 48.90 38.70Q48.90 43.15 51.18 45.58Q53.45 48 56.90 48ZM90.75 24.50Q94.00 24.50 96.58 25.85Q99.15 27.20 100.60 29.85Q102.05 32.50 102.05 36.25L102.05 52.50L96.40 52.50L96.40 37.10Q96.40 33.40 94.55 31.42Q92.70 29.45 89.50 29.45Q86.30 29.45 84.43 31.42Q82.55 33.40 82.55 37.10L82.55 52.50L76.85 52.50L76.85 24.95L82.55 24.95L82.55 28.10Q83.95 26.40 86.13 25.45Q88.30 24.50 90.75 24.50ZM115.95 29.60L115.95 44.85Q115.95 46.40 116.68 47.08Q117.40 47.75 119.15 47.75L122.65 47.75L122.65 52.50L118.15 52.50Q114.30 52.50 112.25 50.70Q110.20 48.90 110.20 44.85L110.20 29.60L106.95 29.60L106.95 24.95L110.20 24.95L110.20 18.10L115.95 18.10L115.95 24.95L122.65 24.95L122.65 29.60L115.95 29.60ZM149.05 32L149.05 36.80L128.50 36.80L128.50 32L149.05 32ZM162.85 22.35L162.85 32.55L174.85 32.55L174.85 37.20L162.85 37.20L162.85 47.85L176.35 47.85L176.35 52.50L157.15 52.50L157.15 17.70L176.35 17.70L176.35 22.35L162.85 22.35ZM197.25 24.50Q200.50 24.50 203.08 25.85Q205.65 27.20 207.10 29.85Q208.55 32.50 208.55 36.25L208.55 52.50L202.90 52.50L202.90 37.10Q202.90 33.40 201.05 31.42Q199.20 29.45 196.00 29.45Q192.80 29.45 190.93 31.42Q189.05 33.40 189.05 37.10L189.05 52.50L183.35 52.50L183.35 24.95L189.05 24.95L189.05 28.10Q190.45 26.40 192.63 25.45Q194.80 24.50 197.25 24.50ZM213.90 38.60Q213.90 34.45 215.63 31.25Q217.35 28.05 220.33 26.27Q223.30 24.50 226.95 24.50Q229.65 24.50 232.28 25.67Q234.90 26.85 236.45 28.80L236.45 15.50L242.20 15.50L242.20 52.50L236.45 52.50L236.45 48.35Q235.05 50.35 232.58 51.65Q230.10 52.95 226.90 52.95Q223.30 52.95 220.33 51.13Q217.35 49.30 215.63 46.02Q213.90 42.75 213.90 38.60M236.45 38.70Q236.45 35.85 235.28 33.75Q234.10 31.65 232.20 30.55Q230.30 29.45 228.10 29.45Q225.90 29.45 224 30.52Q222.10 31.60 220.93 33.67Q219.75 35.75 219.75 38.60Q219.75 41.45 220.93 43.60Q222.10 45.75 224.03 46.88Q225.95 48 228.10 48Q230.30 48 232.20 46.90Q234.10 45.80 235.28 43.67Q236.45 41.55 236.45 38.70ZM275.30 61.80Q270.40 57.10 267.78 49.85Q265.15 42.60 265.15 34.30Q265.15 25.80 267.98 18.25Q270.80 10.70 276.30 5.80L282.20 5.80L282.20 6.35Q276.45 11.65 273.55 19.05Q270.65 26.45 270.65 34.30Q270.65 41.85 273.35 48.90Q276.05 55.95 281.20 61.25L281.20 61.80L275.30 61.80ZM285.90 61.80L285.90 61.25Q291.05 55.95 293.75 48.90Q296.45 41.85 296.45 34.30Q296.45 26.45 293.55 19.05Q290.65 11.65 284.90 6.35L284.90 5.80L290.80 5.80Q296.30 10.70 299.13 18.25Q301.95 25.80 301.95 34.30Q301.95 42.60 299.33 49.85Q296.70 57.10 291.80 61.80L285.90 61.80Z"/></g></g></svg>