<svg xmlns="http://www.w3.org/2000/svg" viewBox="0 5.800000190734863 403.54998779296875 60.29999923706055" data-asc="1.05" width="403.54998779296875" height="60.29999923706055"><defs/><g fill="#000000"><g transform="translate(0, 0)"><path d="M24.30 28.10Q24.30 30.75 23.05 33.10Q21.80 35.45 19.05 36.92Q16.30 38.40 12 38.40L5.70 38.40L5.70 52.50L0 52.50L0 17.75L12 17.75Q16 17.75 18.78 19.13Q21.55 20.50 22.93 22.85Q24.30 25.20 24.30 28.10M12 33.75Q15.25 33.75 16.85 32.27Q18.45 30.80 18.45 28.10Q18.45 22.40 12 22.40L5.70 22.40L5.70 33.75L12 33.75ZM35.45 28.95Q36.70 26.85 38.77 25.67Q40.85 24.50 43.70 24.50L43.70 30.40L42.25 30.40Q38.90 30.40 37.17 32.10Q35.45 33.80 35.45 38L35.45 52.50L29.75 52.50L29.75 24.95L35.45 24.95L35.45 28.95ZM60.90 52.95Q57 52.95 53.85 51.17Q50.70 49.40 48.90 46.17Q47.10 42.95 47.10 38.70Q47.10 34.50 48.95 31.25Q50.80 28 54 26.25Q57.20 24.50 61.15 24.50Q65.10 24.50 68.30 26.25Q71.50 28 73.35 31.25Q75.20 34.50 75.20 38.70Q75.20 42.90 73.30 46.15Q71.40 49.40 68.13 51.17Q64.85 52.95 60.90 52.95M60.90 48Q63.10 48 65.03 46.95Q66.95 45.90 68.15 43.80Q69.35 41.70 69.35 38.70Q69.35 35.70 68.20 33.63Q67.05 31.55 65.15 30.50Q63.25 29.45 61.05 29.45Q58.85 29.45 56.98 30.50Q55.10 31.55 54 33.63Q52.90 35.70 52.90 38.70Q52.90 43.15 55.18 45.58Q57.45 48 60.90 48ZM91.95 24.50Q95.15 24.50 97.63 25.77Q100.10 27.05 101.50 28.95L101.50 24.95L107.25 24.95L107.25 52.95Q107.25 56.75 105.65 59.73Q104.05 62.70 101.03 64.40Q98.00 66.10 93.80 66.10Q88.20 66.10 84.50 63.48Q80.80 60.85 80.30 56.35L85.95 56.35Q86.60 58.50 88.73 59.83Q90.85 61.15 93.80 61.15Q97.25 61.15 99.38 59.05Q101.50 56.95 101.50 52.95L101.50 48.35Q100.05 50.30 97.58 51.63Q95.10 52.95 91.95 52.95Q88.35 52.95 85.38 51.13Q82.40 49.30 80.68 46.02Q78.95 42.75 78.95 38.60Q78.95 34.45 80.68 31.25Q82.40 28.05 85.38 26.27Q88.35 24.50 91.95 24.50M101.50 38.70Q101.50 35.85 100.33 33.75Q99.15 31.65 97.25 30.55Q95.35 29.45 93.15 29.45Q90.95 29.45 89.05 30.52Q87.15 31.60 85.98 33.67Q84.80 35.75 84.80 38.60Q84.80 41.45 85.98 43.60Q87.15 45.75 89.08 46.88Q91.00 48 93.15 48Q95.35 48 97.25 46.90Q99.15 45.80 100.33 43.67Q101.50 41.55 101.50 38.70ZM120.45 28.95Q121.70 26.85 123.78 25.67Q125.85 24.50 128.70 24.50L128.70 30.40L127.25 30.40Q123.90 30.40 122.17 32.10Q120.45 33.80 120.45 38L120.45 52.50L114.75 52.50L114.75 24.95L120.45 24.95L120.45 28.95ZM132.05 38.60Q132.05 34.45 133.77 31.25Q135.50 28.05 138.47 26.27Q141.45 24.50 145.05 24.50Q148.30 24.50 150.72 25.77Q153.15 27.05 154.60 28.95L154.60 24.95L160.35 24.95L160.35 52.50L154.60 52.50L154.60 48.40Q153.15 50.35 150.65 51.65Q148.15 52.95 144.95 52.95Q141.40 52.95 138.45 51.13Q135.50 49.30 133.77 46.02Q132.05 42.75 132.05 38.60M154.60 38.70Q154.60 35.85 153.42 33.75Q152.25 31.65 150.35 30.55Q148.45 29.45 146.25 29.45Q144.05 29.45 142.15 30.52Q140.25 31.60 139.07 33.67Q137.90 35.75 137.90 38.60Q137.90 41.45 139.07 43.60Q140.25 45.75 142.17 46.88Q144.10 48 146.25 48Q148.45 48 150.35 46.90Q152.25 45.80 153.42 43.67Q154.60 41.55 154.60 38.70ZM201.20 24.50Q204.45 24.50 207.03 25.85Q209.60 27.20 211.07 29.85Q212.55 32.50 212.55 36.25L212.55 52.50L206.90 52.50L206.90 37.10Q206.90 33.40 205.05 31.42Q203.20 29.45 200 29.45Q196.80 29.45 194.93 31.42Q193.05 33.40 193.05 37.10L193.05 52.50L187.40 52.50L187.40 37.10Q187.40 33.40 185.55 31.42Q183.70 29.45 180.50 29.45Q177.30 29.45 175.42 31.42Q173.55 33.40 173.55 37.10L173.55 52.50L167.85 52.50L167.85 24.95L173.55 24.95L173.55 28.10Q174.95 26.40 177.10 25.45Q179.25 24.50 181.70 24.50Q185 24.50 187.60 25.90Q190.20 27.30 191.60 29.95Q192.85 27.45 195.50 25.97Q198.15 24.50 201.20 24.50ZM253.15 24.50Q256.40 24.50 258.98 25.85Q261.55 27.20 263.03 29.85Q264.50 32.50 264.50 36.25L264.50 52.50L258.85 52.50L258.85 37.10Q258.85 33.40 257 31.42Q255.15 29.45 251.95 29.45Q248.75 29.45 246.88 31.42Q245 33.40 245 37.10L245 52.50L239.35 52.50L239.35 37.10Q239.35 33.40 237.50 31.42Q235.65 29.45 232.45 29.45Q229.25 29.45 227.38 31.42Q225.50 33.40 225.50 37.10L225.50 52.50L219.80 52.50L219.80 24.95L225.50 24.95L225.50 28.10Q226.90 26.40 229.05 25.45Q231.20 24.50 233.65 24.50Q236.95 24.50 239.55 25.90Q242.15 27.30 243.55 29.95Q244.80 27.45 247.45 25.97Q250.10 24.50 253.15 24.50ZM274.65 21.30Q273.10 21.30 272.05 20.25Q271 19.20 271 17.65Q271 16.10 272.05 15.05Q273.10 14 274.65 14Q276.15 14 277.20 15.05Q278.25 16.10 278.25 17.65Q278.25 19.20 277.20 20.25Q276.15 21.30 274.65 21.30M277.45 24.95L277.45 52.50L271.75 52.50L271.75 24.95L277.45 24.95ZM298.85 24.50Q302.10 24.50 304.68 25.85Q307.25 27.20 308.70 29.85Q310.15 32.50 310.15 36.25L310.15 52.50L304.50 52.50L304.50 37.10Q304.50 33.40 302.65 31.42Q300.80 29.45 297.60 29.45Q294.40 29.45 292.52 31.42Q290.65 33.40 290.65 37.10L290.65 52.50L284.95 52.50L284.95 24.95L290.65 24.95L290.65 28.10Q292.05 26.40 294.22 25.45Q296.40 24.50 298.85 24.50ZM328.50 24.50Q331.70 24.50 334.17 25.77Q336.65 27.05 338.05 28.95L338.05 24.95L343.80 24.95L343.80 52.95Q343.80 56.75 342.20 59.73Q340.60 62.70 337.57 64.40Q334.55 66.10 330.35 66.10Q324.75 66.10 321.05 63.48Q317.35 60.85 316.85 56.35L322.50 56.35Q323.15 58.50 325.27 59.83Q327.40 61.15 330.35 61.15Q333.80 61.15 335.92 59.05Q338.05 56.95 338.05 52.95L338.05 48.35Q336.60 50.30 334.13 51.63Q331.65 52.95 328.50 52.95Q324.90 52.95 321.92 51.13Q318.95 49.30 317.22 46.02Q315.50 42.75 315.50 38.60Q315.50 34.45 317.22 31.25Q318.95 28.05 321.92 26.27Q324.90 24.50 328.50 24.50M338.05 38.70Q338.05 35.85 336.88 33.75Q335.70 31.65 333.80 30.55Q331.90 29.45 329.70 29.45Q327.50 29.45 325.60 30.52Q323.70 31.60 322.52 33.67Q321.35 35.75 321.35 38.60Q321.35 41.45 322.52 43.60Q323.70 45.75 325.63 46.88Q327.55 48 329.70 48Q331.90 48 333.80 46.90Q335.70 45.80 336.88 43.67Q338.05 41.55 338.05 38.70ZM376.90 61.80Q372.00 57.10 369.37 49.85Q366.75 42.60 366.75 34.30Q366.75 25.80 369.57 18.25Q372.40 10.70 377.90 5.80L383.80 5.80L383.80 6.35Q378.05 11.65 375.15 19.05Q372.25 26.45 372.25 34.30Q372.25 41.85 374.95 48.90Q377.65 55.95 382.80 61.25L382.80 61.80L376.90 61.80ZM387.50 61.80L387.50 61.25Q392.65 55.95 395.35 48.90Q398.05 41.85 398.05 34.30Q398.05 26.45 395.15 19.05Q392.25 11.65 386.50 6.35L386.50 5.80L392.40 5.80Q397.90 10.70 400.72 18.25Q403.55 25.80 403.55 34.30Q403.55 42.60 400.92 49.85Q398.30 57.10 393.40 61.80L387.50 61.80Z"/></g></g></svg>