<svg xmlns="http://www.w3.org/2000/svg" viewBox="0 13.300000190734863 477.1499938964844 52.29999923706055" data-asc="1.05" width="477.1499938964844" height="52.29999923706055"><defs/><g fill="#000000"><g transform="translate(0, 0)"><path d="M10.90 45.90L0 34.70L10.90 23.50L19.70 23.50L8.80 34.70L19.70 45.90L10.90 45.90ZM78.65 17.60L78.65 52.50L71.65 52.50L71.65 29.80L62.30 52.50L57.00 52.50L47.60 29.80L47.60 52.50L40.60 52.50L40.60 17.60L48.55 17.60L59.65 43.55L70.75 17.60L78.65 17.60ZM112.05 24.80L94.90 65.60L87.45 65.60L93.45 51.80L82.35 24.80L90.20 24.80L97.35 44.15L104.60 24.80L112.05 24.80ZM152 28.10Q150.80 25.90 148.70 24.75Q146.60 23.60 143.80 23.60Q140.70 23.60 138.30 25Q135.90 26.40 134.55 29Q133.20 31.60 133.20 35Q133.20 38.50 134.58 41.10Q135.95 43.70 138.40 45.10Q140.85 46.50 144.10 46.50Q148.10 46.50 150.65 44.38Q153.20 42.25 154 38.45L142 38.45L142 33.10L160.90 33.10L160.90 39.20Q160.20 42.85 157.90 45.95Q155.60 49.05 151.98 50.92Q148.35 52.80 143.85 52.80Q138.80 52.80 134.73 50.52Q130.65 48.25 128.33 44.20Q126.00 40.15 126.00 35Q126.00 29.85 128.33 25.77Q130.65 21.70 134.73 19.42Q138.80 17.15 143.80 17.15Q149.70 17.15 154.05 20.02Q158.40 22.90 160.05 28.10L152 28.10ZM169.65 21.50Q167.80 21.50 166.58 20.32Q165.35 19.15 165.35 17.40Q165.35 15.65 166.58 14.48Q167.80 13.30 169.65 13.30Q171.50 13.30 172.73 14.48Q173.95 15.65 173.95 17.40Q173.95 19.15 172.73 20.32Q171.50 21.50 169.65 21.50M173.10 24.80L173.10 52.50L166.10 52.50L166.10 24.80L173.10 24.80ZM188.15 30.55L188.15 43.95Q188.15 45.35 188.83 45.98Q189.50 46.60 191.10 46.60L194.35 46.60L194.35 52.50L189.95 52.50Q181.10 52.50 181.10 43.90L181.10 30.55L177.80 30.55L177.80 24.80L181.10 24.80L181.10 17.95L188.15 17.95L188.15 24.80L194.35 24.80L194.35 30.55L188.15 30.55ZM228.35 17.60L228.35 52.50L221.35 52.50L221.35 37.65L206.40 37.65L206.40 52.50L199.40 52.50L199.40 17.60L206.40 17.60L206.40 31.95L221.35 31.95L221.35 17.60L228.35 17.60ZM261.40 24.80L261.40 52.50L254.35 52.50L254.35 49Q253.00 50.80 250.83 51.83Q248.65 52.85 246.10 52.85Q242.85 52.85 240.35 51.48Q237.85 50.10 236.43 47.42Q235.00 44.75 235.00 41.05L235.00 24.80L242.00 24.80L242.00 40.05Q242.00 43.35 243.65 45.13Q245.30 46.90 248.15 46.90Q251.05 46.90 252.70 45.13Q254.35 43.35 254.35 40.05L254.35 24.80L261.40 24.80ZM275.30 28.85Q276.65 26.85 279.03 25.60Q281.40 24.35 284.45 24.35Q288 24.35 290.88 26.10Q293.75 27.85 295.43 31.07Q297.10 34.30 297.10 38.55Q297.10 42.80 295.43 46.08Q293.75 49.35 290.88 51.15Q288 52.95 284.45 52.95Q281.35 52.95 279.03 51.73Q276.70 50.50 275.30 48.55L275.30 52.50L268.30 52.50L268.30 15.50L275.30 15.50L275.30 28.85M289.95 38.55Q289.95 36.05 288.93 34.22Q287.90 32.40 286.23 31.45Q284.55 30.50 282.60 30.50Q280.70 30.50 279.03 31.47Q277.35 32.45 276.33 34.30Q275.30 36.15 275.30 38.65Q275.30 41.15 276.33 43Q277.35 44.85 279.03 45.83Q280.70 46.80 282.60 46.80Q284.55 46.80 286.23 45.80Q287.90 44.80 288.93 42.95Q289.95 41.10 289.95 38.55ZM326.15 52.85Q322.50 52.85 319.57 51.60Q316.65 50.35 314.95 48Q313.25 45.65 313.20 42.45L320.70 42.45Q320.85 44.60 322.22 45.85Q323.60 47.10 326 47.10Q328.45 47.10 329.85 45.92Q331.25 44.75 331.25 42.85Q331.25 41.30 330.30 40.30Q329.35 39.30 327.92 38.73Q326.50 38.15 324 37.45Q320.60 36.45 318.47 35.47Q316.35 34.50 314.82 32.52Q313.30 30.55 313.30 27.25Q313.30 24.15 314.85 21.85Q316.40 19.55 319.20 18.32Q322 17.10 325.60 17.10Q331 17.10 334.38 19.73Q337.75 22.35 338.10 27.05L330.40 27.05Q330.30 25.25 328.88 24.07Q327.45 22.90 325.10 22.90Q323.05 22.90 321.82 23.95Q320.60 25 320.60 27Q320.60 28.40 321.52 29.32Q322.45 30.25 323.82 30.82Q325.20 31.40 327.70 32.15Q331.10 33.15 333.25 34.15Q335.40 35.15 336.95 37.15Q338.50 39.15 338.50 42.40Q338.50 45.20 337.05 47.60Q335.60 50 332.80 51.42Q330 52.85 326.15 52.85ZM352.70 30.55L352.70 43.95Q352.70 45.35 353.37 45.98Q354.05 46.60 355.65 46.60L358.90 46.60L358.90 52.50L354.50 52.50Q345.65 52.50 345.65 43.90L345.65 30.55L342.35 30.55L342.35 24.80L345.65 24.80L345.65 17.95L352.70 17.95L352.70 24.80L358.90 24.80L358.90 30.55L352.70 30.55ZM362.15 38.55Q362.15 34.35 363.82 31.10Q365.50 27.85 368.37 26.10Q371.25 24.35 374.80 24.35Q377.90 24.35 380.22 25.60Q382.55 26.85 383.95 28.75L383.95 24.80L391.00 24.80L391.00 52.50L383.95 52.50L383.95 48.45Q382.60 50.40 380.22 51.67Q377.85 52.95 374.75 52.95Q371.25 52.95 368.37 51.15Q365.50 49.35 363.82 46.08Q362.15 42.80 362.15 38.55M383.95 38.65Q383.95 36.10 382.95 34.27Q381.95 32.45 380.25 31.47Q378.55 30.50 376.60 30.50Q374.65 30.50 373.00 31.45Q371.35 32.40 370.32 34.22Q369.30 36.05 369.30 38.55Q369.30 41.05 370.32 42.92Q371.35 44.80 373.02 45.80Q374.70 46.80 376.60 46.80Q378.55 46.80 380.25 45.83Q381.95 44.85 382.95 43.02Q383.95 41.20 383.95 38.65ZM406.00 30.55L406.00 43.95Q406.00 45.35 406.67 45.98Q407.35 46.60 408.95 46.60L412.20 46.60L412.20 52.50L407.80 52.50Q398.95 52.50 398.95 43.90L398.95 30.55L395.65 30.55L395.65 24.80L398.95 24.80L398.95 17.95L406.00 17.95L406.00 24.80L412.20 24.80L412.20 30.55L406.00 30.55ZM427.85 52.95Q424.45 52.95 421.75 51.73Q419.05 50.50 417.47 48.40Q415.90 46.30 415.75 43.75L422.80 43.75Q423.00 45.35 424.37 46.40Q425.75 47.45 427.80 47.45Q429.80 47.45 430.92 46.65Q432.05 45.85 432.05 44.60Q432.05 43.25 430.67 42.58Q429.30 41.90 426.30 41.10Q423.20 40.35 421.22 39.55Q419.25 38.75 417.82 37.10Q416.40 35.45 416.40 32.65Q416.40 30.35 417.72 28.45Q419.05 26.55 421.52 25.45Q424.00 24.35 427.35 24.35Q432.30 24.35 435.25 26.82Q438.20 29.30 438.50 33.50L431.80 33.50Q431.65 31.85 430.42 30.88Q429.20 29.90 427.15 29.90Q425.25 29.90 424.22 30.60Q423.20 31.30 423.20 32.55Q423.20 33.95 424.60 34.67Q426.00 35.40 428.95 36.15Q431.95 36.90 433.90 37.70Q435.85 38.50 437.27 40.17Q438.70 41.85 438.75 44.60Q438.75 47 437.42 48.90Q436.10 50.80 433.62 51.88Q431.15 52.95 427.85 52.95ZM457.40 23.50L466.25 23.50L477.15 34.70L466.25 45.90L457.40 45.90L468.35 34.70L457.40 23.50Z"/></g></g></svg>