<svg xmlns="http://www.w3.org/2000/svg" viewBox="0 15.5 351.04998779296875 37.45000076293945" data-asc="1.05" width="351.04998779296875" height="37.45000076293945"><defs/><g fill="#000000"><g transform="translate(0, 0)"><path d="M10.90 45.90L0 34.70L10.90 23.50L19.70 23.50L8.80 34.70L19.70 45.90L10.90 45.90ZM64.35 17.60L64.35 23.25L55.05 23.25L55.05 52.50L48.05 52.50L48.05 23.25L38.75 23.25L38.75 17.60L64.35 17.60ZM95.20 38.05Q95.20 39.55 95 40.75L74.75 40.75Q75 43.75 76.85 45.45Q78.70 47.15 81.40 47.15Q85.30 47.15 86.95 43.80L94.50 43.80Q93.30 47.80 89.90 50.38Q86.50 52.95 81.55 52.95Q77.55 52.95 74.38 51.17Q71.20 49.40 69.42 46.15Q67.65 42.90 67.65 38.65Q67.65 34.35 69.40 31.10Q71.15 27.85 74.30 26.10Q77.45 24.35 81.55 24.35Q85.50 24.35 88.63 26.05Q91.75 27.75 93.47 30.88Q95.20 34 95.20 38.05M87.95 36.05Q87.90 33.35 86 31.72Q84.10 30.10 81.35 30.10Q78.75 30.10 76.97 31.67Q75.20 33.25 74.80 36.05L87.95 36.05ZM98.50 38.65Q98.50 34.35 100.25 31.13Q102 27.90 105.10 26.13Q108.20 24.35 112.20 24.35Q117.35 24.35 120.72 26.92Q124.10 29.50 125.25 34.15L117.70 34.15Q117.10 32.35 115.67 31.32Q114.25 30.30 112.15 30.30Q109.15 30.30 107.40 32.47Q105.65 34.65 105.65 38.65Q105.65 42.60 107.40 44.77Q109.15 46.95 112.15 46.95Q116.40 46.95 117.70 43.15L125.25 43.15Q124.10 47.65 120.70 50.30Q117.30 52.95 112.20 52.95Q108.20 52.95 105.10 51.17Q102 49.40 100.25 46.17Q98.50 42.95 98.50 38.65ZM146 24.40Q149.15 24.40 151.60 25.77Q154.05 27.15 155.42 29.82Q156.80 32.50 156.80 36.25L156.80 52.50L149.80 52.50L149.80 37.20Q149.80 33.90 148.15 32.13Q146.50 30.35 143.65 30.35Q140.75 30.35 139.07 32.13Q137.40 33.90 137.40 37.20L137.40 52.50L130.40 52.50L130.40 15.50L137.40 15.50L137.40 28.25Q138.75 26.45 141 25.42Q143.25 24.40 146 24.40ZM187.40 52.85Q183.75 52.85 180.83 51.60Q177.90 50.35 176.20 48Q174.50 45.65 174.45 42.45L181.95 42.45Q182.10 44.60 183.47 45.85Q184.85 47.10 187.25 47.10Q189.70 47.10 191.10 45.92Q192.50 44.75 192.50 42.85Q192.50 41.30 191.55 40.30Q190.60 39.30 189.18 38.73Q187.75 38.15 185.25 37.45Q181.85 36.45 179.72 35.47Q177.60 34.50 176.08 32.52Q174.55 30.55 174.55 27.25Q174.55 24.15 176.10 21.85Q177.65 19.55 180.45 18.32Q183.25 17.10 186.85 17.10Q192.25 17.10 195.63 19.73Q199 22.35 199.35 27.05L191.65 27.05Q191.55 25.25 190.13 24.07Q188.70 22.90 186.35 22.90Q184.30 22.90 183.08 23.95Q181.85 25 181.85 27Q181.85 28.40 182.78 29.32Q183.70 30.25 185.08 30.82Q186.45 31.40 188.95 32.15Q192.35 33.15 194.50 34.15Q196.65 35.15 198.20 37.15Q199.75 39.15 199.75 42.40Q199.75 45.20 198.30 47.60Q196.85 50 194.05 51.42Q191.25 52.85 187.40 52.85ZM213.95 30.55L213.95 43.95Q213.95 45.35 214.63 45.98Q215.30 46.60 216.90 46.60L220.15 46.60L220.15 52.50L215.75 52.50Q206.90 52.50 206.90 43.90L206.90 30.55L203.60 30.55L203.60 24.80L206.90 24.80L206.90 17.95L213.95 17.95L213.95 24.80L220.15 24.80L220.15 30.55L213.95 30.55ZM223.40 38.55Q223.40 34.35 225.08 31.10Q226.75 27.85 229.63 26.10Q232.50 24.35 236.05 24.35Q239.15 24.35 241.48 25.60Q243.80 26.85 245.20 28.75L245.20 24.80L252.25 24.80L252.25 52.50L245.20 52.50L245.20 48.45Q243.85 50.40 241.48 51.67Q239.10 52.95 236.00 52.95Q232.50 52.95 229.63 51.15Q226.75 49.35 225.08 46.08Q223.40 42.80 223.40 38.55M245.20 38.65Q245.20 36.10 244.20 34.27Q243.20 32.45 241.50 31.47Q239.80 30.50 237.85 30.50Q235.90 30.50 234.25 31.45Q232.60 32.40 231.58 34.22Q230.55 36.05 230.55 38.55Q230.55 41.05 231.58 42.92Q232.60 44.80 234.28 45.80Q235.95 46.80 237.85 46.80Q239.80 46.80 241.50 45.83Q243.20 44.85 244.20 43.02Q245.20 41.20 245.20 38.65ZM257.30 38.65Q257.30 34.35 259.05 31.13Q260.80 27.90 263.90 26.13Q267.00 24.35 271.00 24.35Q276.15 24.35 279.53 26.92Q282.90 29.50 284.05 34.15L276.50 34.15Q275.90 32.35 274.48 31.32Q273.05 30.30 270.95 30.30Q267.95 30.30 266.20 32.47Q264.45 34.65 264.45 38.65Q264.45 42.60 266.20 44.77Q267.95 46.95 270.95 46.95Q275.20 46.95 276.50 43.15L284.05 43.15Q282.90 47.65 279.50 50.30Q276.10 52.95 271.00 52.95Q267.00 52.95 263.90 51.17Q260.80 49.40 259.05 46.17Q257.30 42.95 257.30 38.65ZM305.60 52.50L296.20 40.70L296.20 52.50L289.20 52.50L289.20 15.50L296.20 15.50L296.20 36.55L305.50 24.80L314.60 24.80L302.40 38.70L314.70 52.50L305.60 52.50ZM331.30 23.50L340.15 23.50L351.05 34.70L340.15 45.90L331.30 45.90L342.25 34.70L331.30 23.50Z"/></g></g></svg>