<svg xmlns="http://www.w3.org/2000/svg" viewBox="0 15.5 350.8999938964844 37.45000076293945" data-asc="1.05" width="350.8999938964844" height="37.45000076293945"><defs/><g fill="#000000"><g transform="translate(0, 0)"><path d="M11.50 45.80L0 34.45L11.50 23.10L18.70 23.10L7.15 34.45L18.70 45.80L11.50 45.80ZM64.90 17.75L64.90 22.40L55.65 22.40L55.65 52.50L49.95 52.50L49.95 22.40L40.65 22.40L40.65 17.75L64.90 17.75ZM95.90 38.05Q95.90 39.60 95.70 40.85L74.65 40.85Q74.90 44.15 77.10 46.15Q79.30 48.15 82.50 48.15Q87.10 48.15 89 44.30L95.15 44.30Q93.90 48.10 90.63 50.52Q87.35 52.95 82.50 52.95Q78.55 52.95 75.43 51.17Q72.30 49.40 70.53 46.17Q68.75 42.95 68.75 38.70Q68.75 34.45 70.48 31.22Q72.20 28 75.33 26.25Q78.45 24.50 82.50 24.50Q86.40 24.50 89.45 26.20Q92.50 27.90 94.20 30.97Q95.90 34.05 95.90 38.05M89.95 36.25Q89.90 33.10 87.70 31.20Q85.50 29.30 82.25 29.30Q79.30 29.30 77.20 31.17Q75.10 33.05 74.70 36.25L89.95 36.25ZM99.60 38.70Q99.60 34.45 101.33 31.22Q103.05 28 106.10 26.25Q109.15 24.50 113.10 24.50Q118.10 24.50 121.38 26.88Q124.65 29.25 125.80 33.65L119.65 33.65Q118.90 31.60 117.25 30.45Q115.60 29.30 113.10 29.30Q109.60 29.30 107.53 31.77Q105.45 34.25 105.45 38.70Q105.45 43.15 107.53 45.65Q109.60 48.15 113.10 48.15Q118.05 48.15 119.65 43.80L125.80 43.80Q124.60 48 121.30 50.48Q118 52.95 113.10 52.95Q109.15 52.95 106.10 51.17Q103.05 49.40 101.33 46.17Q99.60 42.95 99.60 38.70ZM145.75 24.50Q148.90 24.50 151.38 25.85Q153.85 27.20 155.28 29.85Q156.70 32.50 156.70 36.25L156.70 52.50L151.05 52.50L151.05 37.10Q151.05 33.40 149.20 31.42Q147.35 29.45 144.15 29.45Q140.95 29.45 139.07 31.42Q137.20 33.40 137.20 37.10L137.20 52.50L131.50 52.50L131.50 15.50L137.20 15.50L137.20 28.15Q138.65 26.40 140.88 25.45Q143.10 24.50 145.75 24.50ZM188.40 52.85Q184.90 52.85 182.10 51.63Q179.30 50.40 177.70 48.15Q176.10 45.90 176.10 42.90L182.20 42.90Q182.40 45.15 183.97 46.60Q185.55 48.05 188.40 48.05Q191.35 48.05 193 46.63Q194.65 45.20 194.65 42.95Q194.65 41.20 193.63 40.10Q192.60 39 191.07 38.40Q189.55 37.80 186.85 37.10Q183.45 36.20 181.32 35.27Q179.20 34.35 177.70 32.40Q176.20 30.45 176.20 27.20Q176.20 24.20 177.70 21.95Q179.20 19.70 181.90 18.50Q184.60 17.30 188.15 17.30Q193.20 17.30 196.42 19.82Q199.65 22.35 200 26.75L193.70 26.75Q193.55 24.85 191.90 23.50Q190.25 22.15 187.55 22.15Q185.10 22.15 183.55 23.40Q182 24.65 182 27Q182 28.60 182.97 29.63Q183.95 30.65 185.45 31.25Q186.95 31.85 189.55 32.55Q193 33.50 195.17 34.45Q197.35 35.40 198.88 37.38Q200.40 39.35 200.40 42.65Q200.40 45.30 198.97 47.65Q197.55 50 194.82 51.42Q192.10 52.85 188.40 52.85ZM213.80 29.60L213.80 44.85Q213.80 46.40 214.52 47.08Q215.25 47.75 217.00 47.75L220.50 47.75L220.50 52.50L216.00 52.50Q212.15 52.50 210.10 50.70Q208.05 48.90 208.05 44.85L208.05 29.60L204.80 29.60L204.80 24.95L208.05 24.95L208.05 18.10L213.80 18.10L213.80 24.95L220.50 24.95L220.50 29.60L213.80 29.60ZM223.85 38.60Q223.85 34.45 225.57 31.25Q227.30 28.05 230.27 26.27Q233.25 24.50 236.85 24.50Q240.10 24.50 242.52 25.77Q244.95 27.05 246.40 28.95L246.40 24.95L252.15 24.95L252.15 52.50L246.40 52.50L246.40 48.40Q244.95 50.35 242.45 51.65Q239.95 52.95 236.75 52.95Q233.20 52.95 230.25 51.13Q227.30 49.30 225.57 46.02Q223.85 42.75 223.85 38.60M246.40 38.70Q246.40 35.85 245.22 33.75Q244.05 31.65 242.15 30.55Q240.25 29.45 238.05 29.45Q235.85 29.45 233.95 30.52Q232.05 31.60 230.87 33.67Q229.70 35.75 229.70 38.60Q229.70 41.45 230.87 43.60Q232.05 45.75 233.97 46.88Q235.90 48 238.05 48Q240.25 48 242.15 46.90Q244.05 45.80 245.22 43.67Q246.40 41.55 246.40 38.70ZM257.75 38.70Q257.75 34.45 259.47 31.22Q261.20 28 264.25 26.25Q267.30 24.50 271.25 24.50Q276.25 24.50 279.52 26.88Q282.80 29.25 283.95 33.65L277.80 33.65Q277.05 31.60 275.40 30.45Q273.75 29.30 271.25 29.30Q267.75 29.30 265.67 31.77Q263.60 34.25 263.60 38.70Q263.60 43.15 265.67 45.65Q267.75 48.15 271.25 48.15Q276.20 48.15 277.80 43.80L283.95 43.80Q282.75 48 279.45 50.48Q276.15 52.95 271.25 52.95Q267.30 52.95 264.25 51.17Q261.20 49.40 259.47 46.17Q257.75 42.95 257.75 38.70ZM300.55 38.75L313.25 52.50L305.55 52.50L295.35 40.65L295.35 52.50L289.65 52.50L289.65 15.50L295.35 15.50L295.35 37L305.35 24.95L313.25 24.95L300.55 38.75ZM332.20 23.10L339.40 23.10L350.90 34.45L339.40 45.80L332.20 45.80L343.75 34.45L332.20 23.10Z"/></g></g></svg>