<svg xmlns="http://www.w3.org/2000/svg" viewBox="0 5.800000190734863 371.5 56" data-asc="1.05" width="371.5" height="56"><defs/><g fill="#000000"><g transform="translate(0, 0)"><path d="M24.25 17.75L24.25 22.40L15 22.40L15 52.50L9.30 52.50L9.30 22.40L0 22.40L0 17.75L24.25 17.75ZM55.25 38.05Q55.25 39.60 55.05 40.85L34 40.85Q34.25 44.15 36.45 46.15Q38.65 48.15 41.85 48.15Q46.45 48.15 48.35 44.30L54.50 44.30Q53.25 48.10 49.98 50.52Q46.70 52.95 41.85 52.95Q37.90 52.95 34.78 51.17Q31.65 49.40 29.88 46.17Q28.10 42.95 28.10 38.70Q28.10 34.45 29.83 31.22Q31.55 28 34.68 26.25Q37.80 24.50 41.85 24.50Q45.75 24.50 48.80 26.20Q51.85 27.90 53.55 30.97Q55.25 34.05 55.25 38.05M49.30 36.25Q49.25 33.10 47.05 31.20Q44.85 29.30 41.60 29.30Q38.65 29.30 36.55 31.17Q34.45 33.05 34.05 36.25L49.30 36.25ZM58.95 38.70Q58.95 34.45 60.68 31.22Q62.40 28 65.45 26.25Q68.50 24.50 72.45 24.50Q77.45 24.50 80.73 26.88Q84.00 29.25 85.15 33.65L79.00 33.65Q78.25 31.60 76.60 30.45Q74.95 29.30 72.45 29.30Q68.95 29.30 66.88 31.77Q64.80 34.25 64.80 38.70Q64.80 43.15 66.88 45.65Q68.95 48.15 72.45 48.15Q77.40 48.15 79.00 43.80L85.15 43.80Q83.95 48 80.65 50.48Q77.35 52.95 72.45 52.95Q68.50 52.95 65.45 51.17Q62.40 49.40 60.68 46.17Q58.95 42.95 58.95 38.70ZM105.10 24.50Q108.25 24.50 110.73 25.85Q113.20 27.20 114.63 29.85Q116.05 32.50 116.05 36.25L116.05 52.50L110.40 52.50L110.40 37.10Q110.40 33.40 108.55 31.42Q106.70 29.45 103.50 29.45Q100.30 29.45 98.43 31.42Q96.55 33.40 96.55 37.10L96.55 52.50L90.85 52.50L90.85 15.50L96.55 15.50L96.55 28.15Q98.00 26.40 100.23 25.45Q102.45 24.50 105.10 24.50ZM163.15 52.50L158.85 48.20Q156.35 50.70 153.40 51.92Q150.45 53.15 146.80 53.15Q143.10 53.15 140.25 51.85Q137.40 50.55 135.85 48.13Q134.30 45.70 134.30 42.50Q134.30 38.90 136.35 36.08Q138.40 33.25 142.45 31.60Q141 29.85 140.40 28.32Q139.80 26.80 139.80 24.95Q139.80 22.65 140.98 20.85Q142.15 19.05 144.35 18Q146.55 16.95 149.45 16.95Q152.40 16.95 154.48 18.07Q156.55 19.20 157.58 21.15Q158.60 23.10 158.40 25.50L152.70 25.50Q152.75 23.65 151.80 22.63Q150.85 21.60 149.20 21.60Q147.55 21.60 146.53 22.57Q145.50 23.55 145.50 24.95Q145.50 26.30 146.28 27.63Q147.05 28.95 149 31.05L158.20 40.20L161.75 34.35L167.90 34.35L163.40 42.05L162.15 44.10L170.60 52.50L163.15 52.50M146.80 48.30Q151.50 48.30 155.10 44.45L145.90 35.20Q140 37.55 140 42.30Q140 44.85 141.90 46.58Q143.80 48.30 146.80 48.30ZM209.80 17.75L209.80 22.40L200.55 22.40L200.55 52.50L194.85 52.50L194.85 22.40L185.55 22.40L185.55 17.75L209.80 17.75ZM227.50 52.95Q223.60 52.95 220.45 51.17Q217.30 49.40 215.50 46.17Q213.70 42.95 213.70 38.70Q213.70 34.50 215.55 31.25Q217.40 28 220.60 26.25Q223.80 24.50 227.75 24.50Q231.70 24.50 234.90 26.25Q238.10 28 239.95 31.25Q241.80 34.50 241.80 38.70Q241.80 42.90 239.90 46.15Q238 49.40 234.73 51.17Q231.45 52.95 227.50 52.95M227.50 48Q229.70 48 231.63 46.95Q233.55 45.90 234.75 43.80Q235.95 41.70 235.95 38.70Q235.95 35.70 234.80 33.63Q233.65 31.55 231.75 30.50Q229.85 29.45 227.65 29.45Q225.45 29.45 223.58 30.50Q221.70 31.55 220.60 33.63Q219.50 35.70 219.50 38.70Q219.50 43.15 221.78 45.58Q224.05 48 227.50 48ZM259.40 52.95Q255.50 52.95 252.35 51.17Q249.20 49.40 247.40 46.17Q245.60 42.95 245.60 38.70Q245.60 34.50 247.45 31.25Q249.30 28 252.50 26.25Q255.70 24.50 259.65 24.50Q263.60 24.50 266.80 26.25Q270 28 271.85 31.25Q273.70 34.50 273.70 38.70Q273.70 42.90 271.80 46.15Q269.90 49.40 266.63 51.17Q263.35 52.95 259.40 52.95M259.40 48Q261.60 48 263.53 46.95Q265.45 45.90 266.65 43.80Q267.85 41.70 267.85 38.70Q267.85 35.70 266.70 33.63Q265.55 31.55 263.65 30.50Q261.75 29.45 259.55 29.45Q257.35 29.45 255.48 30.50Q253.60 31.55 252.50 33.63Q251.40 35.70 251.40 38.70Q251.40 43.15 253.68 45.58Q255.95 48 259.40 48ZM285.05 15.50L285.05 52.50L279.35 52.50L279.35 15.50L285.05 15.50ZM302.55 52.95Q299.30 52.95 296.73 51.77Q294.15 50.60 292.65 48.58Q291.15 46.55 291.05 44.05L296.95 44.05Q297.10 45.80 298.63 46.98Q300.15 48.15 302.45 48.15Q304.85 48.15 306.18 47.23Q307.50 46.30 307.50 44.85Q307.50 43.30 306.03 42.55Q304.55 41.80 301.35 40.90Q298.25 40.05 296.30 39.25Q294.35 38.45 292.93 36.80Q291.50 35.15 291.50 32.45Q291.50 30.25 292.80 28.42Q294.10 26.60 296.53 25.55Q298.95 24.50 302.10 24.50Q306.80 24.50 309.68 26.88Q312.55 29.25 312.75 33.35L307.05 33.35Q306.90 31.50 305.55 30.40Q304.20 29.30 301.90 29.30Q299.65 29.30 298.45 30.15Q297.25 31 297.25 32.40Q297.25 33.50 298.05 34.25Q298.85 35 300 35.42Q301.15 35.85 303.40 36.50Q306.40 37.30 308.32 38.13Q310.25 38.95 311.65 40.55Q313.05 42.15 313.10 44.80Q313.10 47.15 311.80 49Q310.50 50.85 308.13 51.90Q305.75 52.95 302.55 52.95ZM344.85 61.80Q339.95 57.10 337.32 49.85Q334.70 42.60 334.70 34.30Q334.70 25.80 337.52 18.25Q340.35 10.70 345.85 5.80L351.75 5.80L351.75 6.35Q346 11.65 343.10 19.05Q340.20 26.45 340.20 34.30Q340.20 41.85 342.90 48.90Q345.60 55.95 350.75 61.25L350.75 61.80L344.85 61.80ZM355.45 61.80L355.45 61.25Q360.60 55.95 363.30 48.90Q366 41.85 366 34.30Q366 26.45 363.10 19.05Q360.20 11.65 354.45 6.35L354.45 5.80L360.35 5.80Q365.85 10.70 368.68 18.25Q371.50 25.80 371.50 34.30Q371.50 42.60 368.88 49.85Q366.25 57.10 361.35 61.80L355.45 61.80Z"/></g></g></svg>